<?xml version="1.0" encoding="iso-8859-1"?>
<!-- Generator: Adobe Illustrator 16.0.0, SVG Export Plug-In . SVG Version: 6.00 Build 0)  -->
<!DOCTYPE svg PUBLIC "-//W3C//DTD SVG 1.1//EN" "http://www.w3.org/Graphics/SVG/1.1/DTD/svg11.dtd">
<svg version="1.1" id="Capa_1" xmlns="http://www.w3.org/2000/svg" xmlns:xlink="http://www.w3.org/1999/xlink" x="0px" y="0px"
	 width="796.4px" height="796.4px" viewBox="0 0 796.4 796.4" style="enable-background:new 0 0 796.4 796.4;" xml:space="preserve"
	>
<g>
	<g>
		<g>
			<path d="M514.7,371.6L514.7,371.6L514.7,371.6c-0.2-1.1-0.4-2.1-0.8-3.2c-2.601-9.9-8.4-27.8-11.101-35.8c-0.3-1.4-0.8-2.8-1.3-4
				l0,0l0,0c-1.6-3.5-4.3-6.4-7.6-8.4l0,0c-0.2-0.1-0.601-0.4-1.2-0.6c-0.2-0.1-0.4-0.2-0.7-0.3c-6.399-3-26.2-11-26.2-11l0,0
				c-9.899-4.3-20.199-7.9-30.6-11.7l0,0l0,0l0,0l0,0c-1.9,7.8-19.6,59.4-22.4,66.5l-2.199-48c0.699-1.1,1.3-2.4,1.899-3.7l7.4-14.6
				c-5.2,4.3-13,7.1-21.8,7.1c-8.5,0-16.2-2.6-21.4-6.8l7.2,14.3c0.6,1.2,1.1,2.5,1.899,3.7l-2.199,48
				C380.8,356,363,304.3,361.2,296.6l0,0l0,0l0,0l0,0c-10.5,3.7-20.7,7.4-30.6,11.7l0,0c0,0-19.801,7.9-26.2,11
				c-0.2,0.1-0.4,0.2-0.7,0.3c-0.6,0.3-1,0.5-1.2,0.6l0,0c-3.3,2-5.9,4.9-7.6,8.4l0,0l0,0c-0.6,1.3-1,2.6-1.3,4
				c-2.7,8-8.5,26-11.1,35.8c-0.3,1-0.6,2.1-0.8,3.2l0,0l0,0c-0.1,1-0.2,1.9-0.2,2.9c0,10.6,8.6,19.1,19.1,19.1h18.3
				c26.1,0,52.2,0,78.399,0c0.301,0,0.7,0,1,0l0,0c0.301,0,0.7,0,1,0c26.101,0,52.2,0,78.4,0H496c10.601,0,19.101-8.6,19.101-19.1
				C514.9,373.5,514.9,372.5,514.7,371.6z"/>
			<path d="M448.101,207.8c0-3.4,0.699-15.6,0.699-18.4c0-27.3-22.1-49.5-49.5-49.5l0,0l0,0h-0.1h-0.1l0,0l0,0
				c-0.301,0-0.601,0-0.9,0s-0.6,0-0.9,0l0,0l0,0h-0.1h-0.1l0,0l0,0c-27.301,0-49.5,22.1-49.5,49.5c0,2.8,0.699,15,0.699,18.4
				c-1.199,0.1-12.3-2.6-11.1,10.7c2.5,28.1,13.2,22.7,13.6,22.7c5.301,17,13.5,27.8,21.5,34.7c12.5,10.7,24.7,11.9,24.9,11.9
				c0.3,0,0.7,0,1,0l0,0l0,0c0.3,0,0.7,0,1,0c0.2,0,12.3-1.2,24.8-11.8c8.101-6.9,16.3-17.7,21.601-34.8c0.3,0,11,5.5,13.6-22.7
				C460.4,205.2,449.3,207.9,448.101,207.8z"/>
		</g>
		<g>
			<path d="M233.2,634.4L233.2,634.4L233.2,634.4c-0.2-1.101-0.4-2.101-0.8-3.2c-2.6-9.9-8.4-27.8-11.1-35.8c-0.3-1.4-0.8-2.8-1.3-4
				l0,0l0,0c-1.6-3.5-4.3-6.4-7.6-8.4l0,0c-0.2-0.1-0.6-0.399-1.2-0.6c-0.2-0.101-0.4-0.2-0.7-0.3c-6.4-3-26.2-11-26.2-11l0,0
				c-9.9-4.301-20.2-7.9-30.6-11.7l0,0l0,0l0,0l0,0c-1.9,7.8-19.6,59.399-22.4,66.5l-2.2-48c0.7-1.101,1.3-2.4,1.9-3.7l7.4-14.6
				c-5.2,4.3-13,7.1-21.8,7.1c-8.5,0-16.2-2.6-21.4-6.8l7.2,14.3c0.6,1.2,1.1,2.5,1.9,3.7l-2.2,48c-2.8-7.101-20.6-58.8-22.4-66.5
				l0,0l0,0l0,0l0,0c-10.5,3.7-20.7,7.399-30.6,11.7l0,0c0,0-19.8,7.899-26.2,11c-0.2,0.1-0.4,0.199-0.7,0.3c-0.6,0.3-1,0.5-1.2,0.6
				l0,0c-3.3,2-5.9,4.9-7.6,8.4l0,0l0,0c-0.6,1.3-1,2.6-1.3,4c-2.7,8-8.5,26-11.1,35.8c-0.3,1-0.6,2.1-0.8,3.2l0,0l0,0
				C0.1,635.4,0,636.3,0,637.3C0,647.9,8.6,656.4,19.1,656.4h18.3c26.1,0,52.2,0,78.3,0c0.3,0,0.7,0,1,0l0,0c0.3,0,0.7,0,1,0
				c26.1,0,52.2,0,78.3,0h18.3c10.6,0,19.1-8.601,19.1-19.101C233.4,636.4,233.3,635.4,233.2,634.4z"/>
			<path d="M166.6,470.7c0-3.4,0.7-15.6,0.7-18.4c0-27.3-22.1-49.5-49.5-49.5l0,0l0,0h-0.1h-0.1l0,0l0,0c-0.3,0-0.6,0-0.9,0
				s-0.6,0-0.9,0l0,0l0,0h-0.1h-0.1l0,0l0,0c-27.3,0-49.5,22.101-49.5,49.5c0,2.801,0.7,15,0.7,18.4c-1.2,0-12.3-2.6-11.1,10.7
				c2.5,28.1,13.2,22.7,13.6,22.7c5.3,17,13.5,27.8,21.5,34.699c12.5,10.7,24.7,11.9,24.9,11.9c0.3,0,0.7,0,1,0l0,0l0,0
				c0.3,0,0.7,0,1,0c0.2,0,12.3-1.2,24.8-11.8c8.1-6.9,16.3-17.7,21.6-34.8c0.3,0,11,5.5,13.6-22.7
				C178.8,468.101,167.8,470.7,166.6,470.7z"/>
		</g>
		<path d="M250.6,294.8c0-3.4,0.7-15.6,0.7-18.4c0-27.3-22.1-49.5-49.5-49.5l0,0l0,0h-0.1h-0.1l0,0l0,0c-0.3,0-0.6,0-0.9,0
			s-0.6,0-0.9,0l0,0l0,0h-0.1h-0.1l0,0l0,0c-27.3,0-49.5,22.1-49.5,49.5c0,2.8,0.7,15,0.7,18.4c-1.2,0-12.3-2.6-11.1,10.7
			c2.5,28.1,13.2,22.7,13.6,22.7c5.3,17,13.5,27.8,21.5,34.7c12.5,10.7,24.7,11.9,24.9,11.9c0.3,0,0.7,0,1,0l0,0l0,0
			c0.3,0,0.7,0,1,0c0.2,0,12.3-1.2,24.8-11.8c8.1-6.9,16.3-17.7,21.6-34.8c0.3,0,11,5.5,13.6-22.7
			C262.8,292.2,251.8,294.9,250.6,294.8z"/>
		<g>
			<path d="M563.2,634.4L563.2,634.4L563.2,634.4c0.2-1.101,0.4-2.101,0.8-3.2c2.601-9.9,8.4-27.8,11.101-35.8
				c0.3-1.4,0.8-2.8,1.3-4l0,0l0,0c1.6-3.5,4.3-6.4,7.6-8.4l0,0c0.2-0.1,0.601-0.399,1.2-0.6c0.2-0.101,0.4-0.2,0.7-0.3
				c6.399-3,26.2-11,26.2-11l0,0c9.899-4.301,20.199-7.9,30.6-11.7l0,0l0,0l0,0l0,0c1.9,7.8,19.6,59.399,22.4,66.5l2.199-48
				c-0.699-1.101-1.3-2.4-1.899-3.7l-7.4-14.6c5.2,4.3,13,7.1,21.8,7.1c8.5,0,16.2-2.6,21.4-6.8l-7.2,14.3
				c-0.6,1.2-1.1,2.5-1.899,3.7l2.199,48c2.801-7.101,20.601-58.8,22.4-66.5l0,0l0,0l0,0l0,0c10.5,3.7,20.7,7.399,30.6,11.7l0,0
				c0,0,19.801,7.899,26.2,11c0.2,0.1,0.4,0.199,0.7,0.3c0.6,0.3,1,0.5,1.2,0.6l0,0c3.3,2,5.899,4.9,7.6,8.4l0,0l0,0
				c0.601,1.3,1,2.6,1.3,4c2.7,8,8.5,26,11.101,35.8c0.3,1,0.6,2.1,0.8,3.2l0,0l0,0c0.1,1,0.2,1.899,0.2,2.899
				c0,10.601-8.601,19.101-19.101,19.101H759c-26.1,0-52.2,0-78.3,0c-0.3,0-0.7,0-1,0l0,0c-0.3,0-0.7,0-1,0c-26.1,0-52.2,0-78.3,0
				h-18.3C571.5,656.4,563,647.8,563,637.3C563,636.4,563.101,635.4,563.2,634.4z"/>
			<path d="M629.8,470.7c0-3.4-0.699-15.6-0.699-18.4c0-27.3,22.1-49.5,49.5-49.5l0,0l0,0h0.1h0.1l0,0l0,0c0.301,0,0.601,0,0.9,0
				s0.6,0,0.9,0l0,0l0,0h0.1h0.1l0,0l0,0c27.301,0,49.5,22.101,49.5,49.5c0,2.801-0.699,15-0.699,18.4c1.199,0,12.3-2.6,11.1,10.7
				c-2.5,28.1-13.2,22.7-13.6,22.7c-5.301,17-13.5,27.8-21.5,34.699c-12.5,10.7-24.7,11.9-24.9,11.9c-0.3,0-0.7,0-1,0l0,0l0,0
				c-0.3,0-0.7,0-1,0c-0.2,0-12.3-1.2-24.8-11.8c-8.101-6.9-16.3-17.7-21.601-34.8c-0.3,0-11,5.5-13.6-22.7
				C617.601,468.101,628.601,470.7,629.8,470.7z"/>
		</g>
		<path d="M545.8,294.8c0-3.4-0.699-15.6-0.699-18.4c0-27.3,22.1-49.5,49.5-49.5l0,0l0,0h0.1h0.1l0,0l0,0c0.301,0,0.601,0,0.9,0
			s0.6,0,0.9,0l0,0l0,0h0.1h0.1l0,0l0,0c27.301,0,49.5,22.1,49.5,49.5c0,2.8-0.699,15-0.699,18.4c1.199,0,12.3-2.6,11.1,10.7
			c-2.5,28.1-13.2,22.7-13.6,22.7c-5.301,17-13.5,27.8-21.5,34.7c-12.5,10.7-24.7,11.9-24.9,11.9c-0.3,0-0.7,0-1,0l0,0l0,0
			c-0.3,0-0.7,0-1,0c-0.2,0-12.3-1.2-24.8-11.8c-8.101-6.9-16.3-17.7-21.601-34.8c-0.3,0-11,5.5-13.6-22.7
			C533.601,292.2,544.601,294.9,545.8,294.8z"/>
		<path d="M536.7,636.5c0,11-9,20-20,20H281.5c-11,0-20-9-20-20l20-195.2c1.4-12.199,9-20,20-20h195.2c11,0,18.8,8.7,20,20
			L536.7,636.5z"/>
	</g>
</g>
<g>
</g>
<g>
</g>
<g>
</g>
<g>
</g>
<g>
</g>
<g>
</g>
<g>
</g>
<g>
</g>
<g>
</g>
<g>
</g>
<g>
</g>
<g>
</g>
<g>
</g>
<g>
</g>
<g>
</g>
</svg>
